<?xml version="1.0" encoding="UTF-8" standalone="no"?>
<svg
   xmlns:dc="http://purl.org/dc/elements/1.1/"
   xmlns:cc="http://creativecommons.org/ns#"
   xmlns:rdf="http://www.w3.org/1999/02/22-rdf-syntax-ns#"
   xmlns:svg="http://www.w3.org/2000/svg"
   xmlns="http://www.w3.org/2000/svg"
   id="svg702"
   version="1.1"
   viewBox="0 0 34.216736 17.191452"
   height="17.191452mm"
   width="34.216736mm">
  <defs
     id="defs696" />
  <metadata
     id="metadata699">
    <rdf:RDF>
      <cc:Work
         rdf:about="">
        <dc:format>image/svg+xml</dc:format>
        <dc:type
           rdf:resource="http://purl.org/dc/dcmitype/StillImage" />
        <dc:title></dc:title>
      </cc:Work>
    </rdf:RDF>
  </metadata>
  <g
     transform="translate(-144.66544,-154.6007)"
     id="layer1">
    <g
       transform="matrix(0.21796213,0,0,0.21796213,59.152158,148.44775)"
       style="display:inline;opacity:1;fill:#00ffff"
       id="g12095">
      <text
         transform="translate(375.09015,1497.637)"
         xml:space="preserve"
         style="font-style:normal;font-variant:normal;font-weight:600;font-stretch:normal;font-size:25px;line-height:125%;font-family:'Open Sans Semibold';-inkscape-font-specification:'Open Sans Semibold, Semi-Bold';text-align:start;letter-spacing:0px;word-spacing:0px;writing-mode:lr-tb;text-anchor:start;fill:#00ffff;fill-opacity:1;stroke:none;stroke-width:1px;stroke-linecap:butt;stroke-linejoin:miter;stroke-opacity:1"
         x="44.194172"
         y="-1390.8159"
         id="text30414"><tspan
           id="tspan30416"
           x="44.194172"
           y="-1390.8159">ОЛИМП</tspan></text>
      <path
         style="fill:#00ffff"
         d="m 541.4517,79.787178 c -7.81596,-6.6017 -7.56732,-6.5191 -14.43356,-4.7958 -1.88893,0.4741 -2.68302,-0.096 -5.52248,-3.964 -1.82399,-2.4848 -3.50621,-4.5178 -3.73828,-4.5178 -0.23207,0 -0.13221,0.4689 0.22192,1.0419 0.43553,0.7047 0.16441,0.8487 -0.83792,0.4452 -0.81496,-0.3281 -2.08282,-0.8398 -2.81745,-1.137 -0.88641,-0.3588 -1.33569,-0.012 -1.33569,1.0284 0,1.498 -0.0784,1.4981 -1.73273,8e-4 -1.67771,-1.5183 -1.82369,-1.439 -4.5975,2.4963 -1.57563,2.2353 -3.20014,3.857 -3.61003,3.6037 -0.40989,-0.2534 -0.74526,-1.9648 -0.74526,-3.8034 0,-3.3393 0.60813,-4.1717 6.8119,-9.3242 1.86219,-1.5466 1.98084,-1.5217 4.35451,0.9162 l 2.44016,2.506 -1.96639,-2.894 c -2.26465,-3.3329 -2.48158,-3.3999 -4.65259,-1.4351 -1.51554,1.3715 -1.96865,1.1451 -7.57251,-3.7844 -3.27828,-2.8839 -10.39821,-9.141 -15.82208,-13.9047 -5.42386,-4.7637 -10.27314,-8.6705 -10.77619,-8.6819 -0.96546,-0.022 -3.5753,2.2354 -12.68143,10.9684 l -5.58192,5.3532 -2.98945,-1.4256 -2.98945,-1.4255 -8.68049,9.7506 -8.6805,9.7507 -3.07573,-1.8147 c -3.01493,-1.7789 -3.12277,-1.7819 -5.45487,-0.1532 -1.30852,0.914 -8.18938,5.1835 -15.2908,9.488 -7.10142,4.3045 -13.91344,8.44 -15.13782,9.19 l -2.22615,1.3638 1.78092,-1.8454 c 0.97951,-1.015 8.59286,-6.7223 16.91856,-12.6829 10.6973,-7.6584 15.66011,-10.7099 16.91874,-10.4027 0.97961,0.2389 2.58252,0.6656 3.56202,0.9479 1.42195,0.4099 3.30654,-1.2651 9.34983,-8.31 4.1629,-4.8528 8.09518,-9.0557 8.73839,-9.3398 0.64322,-0.2839 2.39814,0.119 3.89984,0.8956 l 2.73035,1.4119 5.45,-5.3613 c 8.27634,-8.1416 12.37892,-11.7235 13.41552,-11.7129 0.51649,0.01 2.54269,1.508 4.50268,3.3392 1.95999,1.8313 6.36776,5.7281 9.79506,8.6595 3.4273,2.9314 6.4318,5.5465 6.67667,5.8113 0.24488,0.2648 2.95078,2.6357 6.01313,5.2688 5.24953,4.5136 5.66086,4.7032 7.19379,3.3159 0.89425,-0.8093 2.03516,-1.4715 2.53536,-1.4715 0.50021,0 4.02618,4.047 7.83549,8.9931 6.70314,8.7037 7.01549,8.9729 9.70595,8.3652 1.52895,-0.3454 3.58133,-0.7683 4.56083,-0.9397 1.31596,-0.2304 3.60862,1.7831 8.7814,7.7122 3.85025,4.4131 6.82443,8.1999 6.60927,8.415 -0.21516,0.2152 -3.74902,-2.4449 -7.85302,-5.9113 z m -6.64719,-0.3673 c -1.46926,-0.6728 -3.8735,-1.4968 -5.34276,-1.8312 l -2.67138,-0.6079 3.11661,-1.1 c 3.79672,-1.34 4.53756,-1.1026 7.01489,2.2482 2.14642,2.9031 1.82779,3.0974 -2.11736,1.2909 z m -122.43824,-3.9383 c 1.22438,-0.994 4.92905,-3.6839 8.2326,-5.9774 l 6.00645,-4.1699 3.1945,1.7008 c 5.32549,2.8353 4.83774,4.0032 -0.71608,1.7147 -1.1598,-0.478 -2.01686,0.18 -3.49265,2.6813 -1.74858,2.9636 -2.07199,3.1555 -3.0539,1.8127 -1.01088,-1.3824 -1.54748,-1.2813 -6.74764,1.2717 -3.88567,1.9077 -4.95442,2.2093 -3.42328,0.9661 z m 42.36784,-19.8236 c 6.32775,-6.4581 13.38594,-13.664 15.68489,-16.0131 l 4.1799,-4.271 13.6293,11.237 c 7.49611,6.1804 14.03,11.6272 14.51975,12.1041 1.43972,1.4017 -5.71358,-2.3774 -13.82271,-7.3027 -6.82047,-4.1425 -7.6201,-4.4273 -8.61431,-3.0676 -0.60276,0.8243 -1.23906,1.9281 -1.41398,2.4529 -0.18189,0.5456 -1.43458,0.072 -2.92611,-1.1062 l -2.60806,-2.0602 -0.24037,2.9834 c -0.13221,1.6409 -0.44645,3.9092 -0.69832,5.0408 l -0.45794,2.0573 -2.96863,-1.8347 c -3.75527,-2.3209 -3.77298,-2.3184 -4.37027,0.6139 -0.27433,1.3469 -1.17952,4.0516 -2.01155,6.0107 l -1.51278,3.5618 -1.22366,-3.4949 c -0.67301,-1.9222 -1.36883,-3.6401 -1.54627,-3.8176 -0.17743,-0.1773 -3.37054,1.6959 -7.09578,4.1628 -3.72525,2.467 -7.05103,4.4854 -7.39063,4.4854 -0.3396,0 4.55978,-5.2839 10.88753,-11.7421 z m -11.92641,2.0758 c 2.60139,-3.714 7.92572,-9.0334 9.04184,-9.0334 1.25367,0 3.25881,1.7533 3.25881,2.8495 0,0.3918 -0.55609,0.7124 -1.23577,0.7124 -0.67967,0 -3.18409,1.3282 -5.56538,2.9516 -6.82017,4.6493 -7.07174,4.7646 -5.4995,2.5199 z"
         id="path12013" />
    </g>
  </g>
</svg>
